<svg width="100" height="94" viewBox="0 0 100 94" fill="none" xmlns="http://www.w3.org/2000/svg">
<g clip-path="url(#clip0_4_65)">
<path d="M99.4079 38.4097H7.34155V86.021H99.4079V38.4097Z" stroke="#FF0000" stroke-width="2" stroke-linejoin="round"/>
<path d="M53.4044 73.5542C59.6499 73.5542 64.7129 68.4776 64.7129 62.2153C64.7129 55.9531 59.6499 50.8765 53.4044 50.8765C47.1589 50.8765 42.0959 55.9531 42.0959 62.2153C42.0959 68.4776 47.1589 73.5542 53.4044 73.5542Z" stroke="#FF0000" stroke-width="2" stroke-linejoin="round"/>
<path d="M92.6584 92.7887H0.592041V45.1774" stroke="#FF0000" stroke-width="2" stroke-linejoin="round"/>
<path d="M53.4043 29.4454V0.712402" stroke="#FF0000" stroke-width="2" stroke-linejoin="round"/>
<path d="M43.9905 9.97342L53.4043 0.593628L62.759 9.97342" stroke="#FF0000" stroke-width="2" stroke-linejoin="round"/>
<path d="M27.1167 62.2153H29.0705" stroke="#FF0000" stroke-width="2" stroke-linejoin="round"/>
<path d="M77.6792 62.2153H79.6922" stroke="#FF0000" stroke-width="2" stroke-linejoin="round"/>
<path d="M92.6583 73.3761V50.8765C88.7033 50.8765 85.4943 47.6589 85.4943 43.6932H21.3735C21.3735 47.6589 18.1645 50.8765 14.2095 50.8765V73.3761C18.1645 73.3761 21.3735 76.5937 21.3735 80.5594H85.4943C85.4943 76.5937 88.7033 73.3761 92.6583 73.3761Z" stroke="#FF0000" stroke-width="2" stroke-linejoin="round"/>
</g>
<defs>
<clipPath id="clip0_4_65">
<rect width="100" height="93.3824" fill="white"/>
</clipPath>
</defs>
</svg>
